<svg xmlns="http://www.w3.org/2000/svg" xmlns:xlink="http://www.w3.org/1999/xlink" fill="none" width="280" height="291"><path d="M15 126c0-8.284 6.716-15 15-15h220c8.284 0 15 6.716 15 15v150c0 8.284-6.716 15-15 15H30c-8.284 0-15-6.716-15-15V126z" fill="#414141"/><path d="M40 15c0-8.284 6.716-15 15-15h170c8.284 0 15 6.716 15 15v130c0 8.284-6.716 15-15 15H55c-8.284 0-15-6.716-15-15V15z" fill="#0ff"/><path d="M0 151c0-8.284 6.716-15 15-15v47c-8.284 0-15-6.716-15-15v-17zm280 17c0 8.284-6.716 15-15 15v-47c8.284 0 15 6.716 15 15v17z" fill="#a413c9"/><g fill="#d9d9d9"><path d="M78 258a10 10 0 0 1 10-10h104a10 10 0 1 1 0 20H88a10 10 0 0 1-10-10zm-7-17a10 10 0 1 1-20 0 10 10 0 1 1 20 0z"/><use xlink:href="#a"/><use xlink:href="#a" x="-40"/><path d="M110 188a10 10 0 0 1-10 10c-5.523 0-10-4.477-10-10s4.477-10 10-10a10 10 0 0 1 10 10z"/><use xlink:href="#a" y="33"/><path d="M107 221a10 10 0 0 1-10 10c-5.523 0-10-4.477-10-10s4.477-10 10-10a10 10 0 0 1 10 10z"/><use xlink:href="#a" x="-40" y="33"/><use xlink:href="#a" x="39" y="20"/><path d="M71 208c0 5.523-4.477 10-10 10s-10-4.477-10-10 4.477-10 10-10 10 4.477 10 10z"/><use xlink:href="#a" x="39" y="53"/></g><path d="M30 66a10 10 0 0 1 10-10v55H30V66zm210-10a10 10 0 0 1 10 10v45h-10V56z" fill="#a413c9"/><path d="M61 19h158v37H61V19zm0 55h158v20H61V74zm0 27h100v20H61v-20z" fill="#2a9595"/><defs><path d="M190 188a10 10 0 1 1-20 0 10 10 0 1 1 20 0z" id="a"/></defs></svg>