<svg xmlns="http://www.w3.org/2000/svg" fill="none" width="500" height="550"><path d="M0 0h500v550H0V0Z" fill="#d9d9d9"/><path d="M0 49h500v232H0V49Z" fill="#45b8bf"/><path d="M94 13h25v25H94V13z" fill="#4f83d2"/><path d="M14 13h25v25H14V13Z" fill="#e77373"/><path d="M54 13h25v25H54V13Z" fill="#a2b627"/><g fill="#aaa"><path d="M139 13h342v25H139V13Z"/><path d="M139 13h342v25H139V13Z"/><path d="M139 13h342v25H139V13Z"/><path d="M139 13h342v25H139V13zM25 322h450v25H25v-25zm0 54h450v25H25v-25zm0 54h450v25H25v-25zm239 54h211v48H264v-48z"/></g><path d="M294.5 172 203 228.725v-113.45L294.5 172Z" fill="#1b7c82"/><path d="M25 484h219v48H25v-48z" fill="#aaa"/></svg>