<svg xmlns="http://www.w3.org/2000/svg" fill="none" width="110" height="90"><g stroke="#000"><path d="M6 10h100v60H6z" fill="#fff" stroke-width="3"/><path d="M2.534 24.241 5.893 10.5H17.97l-.956 15.927c-.258 4.302-4.144 7.46-8.408 6.833-4.286-.63-7.1-4.811-6.072-9.019z" fill="#da1010"/><path d="m17.992 25.808.977-15.308H31.5v15.739a6.761 6.761 0 1 1-13.508-.431z" fill="#00f7e8"/><path d="M32.5 10.5h14V26a7 7 0 1 1-14 0V10.5z" fill="#da1010"/><path d="M47.5 10.5h14V26a7 7 0 1 1-14 0V10.5z" fill="#00f6e8"/><path d="M62.5 10.5h14V26a7 7 0 1 1-14 0V10.5z" fill="#da1010"/><path d="M77.5 10.5h14V26a7 7 0 1 1-14 0V10.5z" fill="#00f6e8"/><path d="M92.5 10.5h14.06l1.732 13.568A7.93 7.93 0 1 1 92.5 25.072V10.5z" fill="#da1010"/></g><path d="M6 2h100v5H6z" fill="#00f6e8" stroke="#00f6e8" stroke-width="3"/><g fill="#d9d9d9"><rect width="25" height="26" x="15" y="35" rx="2"/><path d="M44 35h52v26H44z"/></g><path d="M43 70h26v10H43zM25 90c0-5.523 4.477-10 10-10h40c5.523 0 10 4.477 10 10H25z" fill="#000"/></svg>